<svg xmlns="http://www.w3.org/2000/svg" width="52.117" height="52.037" viewBox="0 0 52.117 52.037">
  <g id="a" transform="translate(0 -0.379)">
    <g id="Group_112" data-name="Group 112" transform="translate(0 0.379)">
      <g id="Group_110" data-name="Group 110" transform="translate(0 0)">
        <g id="Group_108" data-name="Group 108">
          <ellipse id="Ellipse_3" data-name="Ellipse 3" cx="16.778" cy="16.753" rx="16.778" ry="16.753" fill="#fff"/>
          <g id="Group_107" data-name="Group 107" transform="translate(3.953 3.947)">
            <ellipse id="Ellipse_4" data-name="Ellipse 4" cx="12.826" cy="12.806" rx="12.826" ry="12.806" fill="#ebebeb"/>
          </g>
          <path id="Path_127" data-name="Path 127" d="M142.1,38.015a12.876,12.876,0,0,0-2.1.172,12.8,12.8,0,0,1,0,25.268,12.808,12.808,0,1,0,2.1-25.44Z" transform="translate(-125.322 -34.068)" fill="#c6c6c6"/>
          <path id="Path_128" data-name="Path 128" d="M119.039,103.436l-5.982-.053a4.888,4.888,0,0,0,1.231-4.17l-.007-.056h1.892a.787.787,0,0,0,0-1.573h-2.261a5.755,5.755,0,0,1-1.076-2.808s0,0,0,0,0,0,0,0a1.634,1.634,0,0,1,.9-1.51,3.364,3.364,0,0,1,3.077-.016,2.726,2.726,0,0,1,1.25,1.422.787.787,0,0,0,1.513-.43,4.248,4.248,0,0,0-1.947-2.336,4.952,4.952,0,0,0-4.667-.009,3.188,3.188,0,0,0-1.695,2.872s0,0,0,.006,0,0,0,0v0a6.262,6.262,0,0,0,.816,2.806h-1.24a.787.787,0,0,0,0,1.573H112.7a3.945,3.945,0,0,1-.9,3.288l-.973,1.221a.793.793,0,0,0,.608,1.276l7.595.067A.788.788,0,0,0,119.039,103.436Z" transform="translate(-98.534 -81.775)" fill="#111519"/>
        </g>
        <g id="Group_109" data-name="Group 109" transform="translate(18.56 18.532)">
          <ellipse id="Ellipse_5" data-name="Ellipse 5" cx="16.778" cy="16.753" rx="16.778" ry="16.753" fill="#3792ed"/>
          <ellipse id="Ellipse_6" data-name="Ellipse 6" cx="12.825" cy="12.806" rx="12.825" ry="12.806" transform="translate(3.953 3.947)" fill="#d6ebff"/>
          <path id="Path_129" data-name="Path 129" d="M319.094,214.74a12.875,12.875,0,0,0-2.1.172,12.8,12.8,0,0,1,0,25.268,12.808,12.808,0,1,0,2.1-25.44Z" transform="translate(-302.316 -210.794)" fill="#a0d0ff"/>
          <path id="Path_130" data-name="Path 130" d="M280.721,272.752a3.583,3.583,0,0,1,2.25.828.787.787,0,0,0,.984-1.227,5.14,5.14,0,0,0-3.234-1.174c-2.994,0-5.468,2.733-5.794,6.236h-.179a.787.787,0,0,0,0,1.573h.179c.326,3.5,2.8,6.236,5.794,6.236a5.075,5.075,0,0,0,2.641-.757.787.787,0,0,0-.82-1.343,3.456,3.456,0,0,1-1.821.526c-2.139,0-3.914-2.03-4.213-4.663h3.281a.787.787,0,0,0,0-1.573h-3.281C276.807,274.782,278.582,272.752,280.721,272.752Z" transform="translate(-263.816 -261.314)" fill="#071025"/>
        </g>
      </g>
      <g id="Group_111" data-name="Group 111" transform="translate(4.223 2.977)">
        <path id="Path_131" data-name="Path 131" d="M325.927,31.034l1.362-.8a.787.787,0,0,0-.8-1.357l-3.229,1.893a.786.786,0,0,0-.187,1.2l2.495,2.776a.787.787,0,0,0,1.17-1.051l-.991-1.1a11.1,11.1,0,0,1,9.589,10.985.787.787,0,0,0,1.573,0A12.679,12.679,0,0,0,325.927,31.034Z" transform="translate(-293.243 -28.765)" fill="#3792ed"/>
        <path id="Path_132" data-name="Path 132" d="M51.611,329.239a.787.787,0,0,0-1.17,1.051l.991,1.1a11.1,11.1,0,0,1-9.589-10.985.787.787,0,0,0-1.573,0,12.679,12.679,0,0,0,10.987,12.549l-1.362.8a.787.787,0,0,0,.8,1.357l3.229-1.893a.786.786,0,0,0,.187-1.2Z" transform="translate(-40.27 -289.143)" fill="#ebebeb"/>
      </g>
    </g>
  </g>
</svg>
