<svg xmlns="http://www.w3.org/2000/svg" width="83.155" height="82.038" viewBox="0 0 83.155 82.038">
  <g id="a" transform="translate(15 15)">
    <path id="Union_10" data-name="Union 10" d="M-1219-5740.431a.5.5,0,0,1,.432-.5l.558-.083v-19.353a1.02,1.02,0,0,1,1.015-1.026h8.365v-9.165a1.021,1.021,0,0,1,1.016-1.026h8.367v-9.164c0-.018,0-.035,0-.053a1.02,1.02,0,0,1,1.013-.975h8.365v-9.165a1.021,1.021,0,0,1,1.016-1.026h7.457a1.021,1.021,0,0,1,1.016,1.026v32.693a67.865,67.865,0,0,0,6.217-6.3.355.355,0,0,0,.088-.228.36.36,0,0,0-.1-.256l-2.877-2.976a.353.353,0,0,1-.1-.22.359.359,0,0,1,.357-.389h10.589a.359.359,0,0,1,.359.359v11.022a.359.359,0,0,1-.6.263l-2.76-2.562a.358.358,0,0,0-.493,0c-2.224,2.16-19.722,18.265-47.966,19.565h-.019l-.21.009-.154.006-.123.005-.3.011h-.018A.505.505,0,0,1-1219-5740.431Z" transform="translate(1219 5791.963)" fill="#3792ed" opacity="0.4"/>
    <path id="Path_133" data-name="Path 133" d="M19.012,313.435V294.473H10.539A1.021,1.021,0,0,0,9.523,295.5v19.967a77.956,77.956,0,0,0,9.488-2.033Zm0,0" transform="translate(-8.535 -263.902)" fill="#c0e0ff" opacity="0.9"/>
    <path id="Path_134" data-name="Path 134" d="M12.732,295.5a1.021,1.021,0,0,1,1.015-1.027H10.539A1.021,1.021,0,0,0,9.523,295.5v19.967c1.015-.152,2.088-.333,3.209-.55Zm0,0" transform="translate(-8.535 -263.902)" fill="#eef7ff" opacity="0.4"/>
    <path id="Path_135" data-name="Path 135" d="M109.375,222.118v-25.8H100.9a1.022,1.022,0,0,0-1.016,1.027v28.126a75.612,75.612,0,0,0,9.488-3.351Zm0,0" transform="translate(-89.517 -175.936)" fill="#c0e0ff" opacity="0.9"/>
    <path id="Path_136" data-name="Path 136" d="M103.1,197.343a1.021,1.021,0,0,1,1.015-1.027H100.9a1.022,1.022,0,0,0-1.016,1.027v28.126q1.571-.44,3.209-.977Zm0,0" transform="translate(-89.517 -175.936)" fill="#eef7ff" opacity="0.6"/>
    <path id="Path_137" data-name="Path 137" d="M199.742,129.194V98.16h-8.473a1.021,1.021,0,0,0-1.015,1.027v34.965a71.046,71.046,0,0,0,9.488-4.957Zm0,0" transform="translate(-170.502 -87.97)" fill="#c0e0ff" opacity="0.9"/>
    <path id="Path_138" data-name="Path 138" d="M193.462,99.187a1.021,1.021,0,0,1,1.015-1.027h-3.209a1.021,1.021,0,0,0-1.015,1.027v34.965q1.592-.686,3.209-1.477Zm0,0" transform="translate(-170.502 -87.97)" fill="#eef7ff" opacity="0.8"/>
    <path id="Path_139" data-name="Path 139" d="M290.106,34.093V1.026A1.021,1.021,0,0,0,289.09,0h-7.457a1.021,1.021,0,0,0-1.015,1.027v40.2a68.02,68.02,0,0,0,9.488-7.131Zm0,0" transform="translate(-251.485)" fill="#c0e0ff"/>
    <path id="Path_140" data-name="Path 140" d="M283.825,1.027A1.021,1.021,0,0,1,284.841,0h-3.209a1.021,1.021,0,0,0-1.015,1.027v40.2q1.608-1,3.209-2.129Zm0,0" transform="translate(-251.484 -0.001)" fill="#eef7ff"/>
    <path id="Path_141" data-name="Path 141" d="M52.8,224.937H42.207a.359.359,0,0,0-.258.608l2.876,2.976a.36.36,0,0,1,.013.485C30.365,245.709,11.75,250.979.431,252.619a.5.5,0,0,0,.091,1c28.721-1.024,46.53-17.418,48.776-19.6a.358.358,0,0,1,.493,0l2.761,2.562a.359.359,0,0,0,.6-.263V225.3a.359.359,0,0,0-.358-.358Zm0,0" transform="translate(0 -201.585)" fill="#7bf"/>
    <path id="Path_142" data-name="Path 142" d="M4.668,253.118a.5.5,0,0,1,.431-.5c11.32-1.64,29.934-6.91,44.408-23.613a.359.359,0,0,0-.013-.485l-2.876-2.976a.359.359,0,0,1,.258-.608H42.207a.359.359,0,0,0-.258.608l2.876,2.976a.359.359,0,0,1,.013.485C30.365,245.709,11.75,250.979.431,252.619a.5.5,0,0,0,.091,1q2.146-.077,4.209-.265a.5.5,0,0,1-.063-.239Zm0,0" transform="translate(0 -201.586)" fill="#3792ed"/>
  </g>
</svg>
