<svg xmlns="http://www.w3.org/2000/svg" width="67.036" height="82.038" viewBox="0 0 67.036 82.038">
  <g id="a" transform="translate(15 15)">
    <g id="Group_106" data-name="Group 106">
      <path id="Union_9" data-name="Union 9" d="M-464.51-5739.926a1.516,1.516,0,0,1-.845-.257l-3.05-2.032a1.522,1.522,0,0,1-.679-1.269v-21.765a11.625,11.625,0,0,1-4.8-3.778,11.587,11.587,0,0,1-2.313-6.98,11.7,11.7,0,0,1,10.164-11.588v-2.843a1.524,1.524,0,0,1,1.523-1.525,1.524,1.524,0,0,1,1.525,1.525v2.843a11.705,11.705,0,0,1,10.164,11.588,11.587,11.587,0,0,1-2.313,6.98,11.625,11.625,0,0,1-4.8,3.778v8.09l1.776,2.666a1.521,1.521,0,0,1,.256.845,1.52,1.52,0,0,1-.256.845l-1.468,2.2,1.468,2.2a1.518,1.518,0,0,1,.256.836,1.528,1.528,0,0,1-.353.985l-5.082,6.1A1.52,1.52,0,0,1-464.51-5739.926Z" transform="translate(476.197 5791.963)" fill="#3792ed"/>
      <path id="Path_111" data-name="Path 111" d="M130.5,71.743a1.518,1.518,0,0,1-.644.6l-3.285,1.624a1.525,1.525,0,0,1-1.438-.046L106.288,63.042a11.684,11.684,0,1,1,4.574-7.922l7.007,4.045,3.2-.206a1.524,1.524,0,0,1,1.465.846l1.174,2.374,2.643-.17a1.525,1.525,0,0,1,1.529,1l2.74,7.45a1.524,1.524,0,0,1-.111,1.289Z" transform="translate(-78.671 -37.746)" fill="#3792ed"/>
      <path id="Path_112" data-name="Path 112" d="M80.748,84.937a1.519,1.519,0,0,1-.86.2L76.231,84.9a1.525,1.525,0,0,1-1.222-.759L64.127,65.294a11.684,11.684,0,1,1,7.922-4.574l4.045,7.007,2.871,1.42a1.524,1.524,0,0,1,.846,1.465l-.17,2.643,2.374,1.174a1.525,1.525,0,0,1,.826,1.626l-1.352,7.822A1.524,1.524,0,0,1,80.748,84.937Z" transform="translate(-45.837 -37.735)" fill="#a0d0ff"/>
      <path id="Path_113" data-name="Path 113" d="M11.687,89.768a1.519,1.519,0,0,1-.845-.256L7.793,87.479a1.524,1.524,0,0,1-.679-1.268V64.446A11.689,11.689,0,1,1,23.376,53.688a11.7,11.7,0,0,1-7.114,10.758v8.09L18.038,75.2a1.525,1.525,0,0,1,0,1.691l-1.469,2.2,1.469,2.2a1.524,1.524,0,0,1-.1,1.822l-5.082,6.1a1.523,1.523,0,0,1-1.172.549Z" transform="translate(0 -37.731)" fill="#eef7ff"/>
      <path id="Path_114" data-name="Path 114" d="M116.171,89.22l5.082-6.1a1.525,1.525,0,0,0,.1-1.822l-1.469-2.2,1.469-2.2a1.525,1.525,0,0,0,0-1.691l-1.777-2.665v-8.09A11.689,11.689,0,0,0,115,42V89.768A1.523,1.523,0,0,0,116.171,89.22Z" transform="translate(-103.312 -37.731)" fill="#d6ebff"/>
      <path id="Path_115" data-name="Path 115" d="M100,11.891V1.525a1.525,1.525,0,1,1,3.049,0V11.891Z" transform="translate(-89.837)" fill="#8dc6ff"/>
      <path id="Path_116" data-name="Path 116" d="M116.525,11.891V1.525A1.525,1.525,0,0,0,115,0V11.891Z" transform="translate(-103.312)" fill="#3792ed"/>
      <path id="Path_117" data-name="Path 117" d="M85.59,105.049H81.525a1.525,1.525,0,0,1,0-3.049H85.59a1.525,1.525,0,0,1,0,3.049Z" transform="translate(-71.869 -91.633)" fill="#8dc6ff"/>
      <path id="Path_118" data-name="Path 118" d="M117.033,102H115v3.049h2.033a1.525,1.525,0,0,0,0-3.049Z" transform="translate(-103.312 -91.633)" fill="#3792ed"/>
    </g>
  </g>
</svg>
