<?xml version="1.0" encoding="utf-8"?>
<!-- Generator: Adobe Illustrator 25.4.1, SVG Export Plug-In . SVG Version: 6.00 Build 0)  -->
<svg version="1.1" id="Слой_1" xmlns="http://www.w3.org/2000/svg" xmlns:xlink="http://www.w3.org/1999/xlink" x="0px" y="0px"
	 viewBox="0 0 1920 1080" style="enable-background:new 0 0 1920 1080;" xml:space="preserve">
<style type="text/css">
	.st0{fill:#FF0000;}
	.st1{fill:#F64323;}
	.st2{fill:#ffffff;}
	.st3{display:none;fill:#202020;}
</style>
<g>
	<g>
		<polygon class="st0" points="433.87,677.55 434.03,677.28 433.71,677.28 		"/>
		<polygon class="st1" points="466.55,624.52 414.45,540 347.97,540 433.71,677.28 434.03,677.28 499.08,677.28 499.37,677.28 
			583.97,540 518.63,540 		"/>
		<polygon class="st0" points="499.21,677.52 499.37,677.28 499.08,677.28 		"/>
		<path class="st2" d="M493.35,477.48c-12.92-36.84-47.97-63.26-89.23-63.26H285.45v63.26h118.66c17.29,0,31.27,13.98,31.27,31.24
			c0,13.98-8.26,27.3-20.94,31.27l0,0l32.63,52.93c21.47-10.97,38.2-29.91,46.24-52.93c3.44-9.78,5.3-20.3,5.3-31.27
			C498.62,497.78,496.76,487.26,493.35,477.48z"/>
		<polygon class="st2" points="314.91,540 285.45,540 285.45,603.23 285.45,677.28 347.97,677.28 347.97,603.23 347.97,584.75 
			347.97,540 		"/>
		<path class="st1" d="M345.89,497.56c-4.48-11.75-15.85-20.08-29.19-20.08c-17.26,0-31.24,14.01-31.24,31.27
			c0,16.75,13.16,30.45,29.73,31.22c0.51,0.05,1.01,0.05,1.52,0.05c17.29,0,31.27-14.01,31.27-31.27
			C347.97,504.8,347.25,501.04,345.89,497.56z"/>
	</g>
	<g>
		<g>
			<path class="st2" d="M733.24,445.02h-23.52v82.81h23.52V445.02z M721.48,403.61c-3.76,0-7.02,1.3-9.96,3.73
				c-2.94,2.44-4.41,5.85-4.41,10.23c0,2.11,0.33,4.06,1.31,5.68c0.65,1.79,1.8,3.25,3.1,4.55c1.31,1.14,2.78,2.11,4.57,2.76
				c1.8,0.65,3.59,0.97,5.39,0.97c3.76,0,7.19-1.3,10.13-3.73c2.78-2.6,4.25-6.01,4.25-10.23c0-4.38-1.47-7.79-4.25-10.23
				C728.66,404.91,725.23,403.61,721.48,403.61z"/>
			<path class="st2" d="M841.25,413.04h-23.36v35.88c-2.78-1.95-6.21-3.41-9.96-4.38c-3.76-0.97-7.68-1.46-11.6-1.46
				c-6.21,0-12.09,0.97-17.48,3.09s-10.13,5.03-14.05,8.61c-4.08,3.9-7.19,8.44-9.47,13.8c-2.29,5.36-3.43,11.37-3.43,18.02
				c0,6.82,0.98,12.83,2.94,18.19c1.96,5.36,4.74,9.74,8.33,13.64c3.59,3.57,7.84,6.5,13.07,8.44c4.9,1.95,10.62,2.92,16.82,2.92
				c6.04,0,11.27-1.14,16.17-3.25c4.57-2.11,8.66-5.52,11.76-10.07l1.8,11.37h18.46V413.04z M817.89,469.38v24.19
				c-1.47,5.2-4.25,9.09-8.33,11.85c-4.08,2.76-8.82,4.06-14.21,4.06c-2.78,0-5.39-0.49-7.68-1.62c-2.61-1.14-4.57-2.6-6.53-4.71
				c-1.63-1.95-3.1-4.38-4.25-7.14c-1.14-2.92-1.63-6.17-1.63-9.74c0-7.14,2.12-12.67,6.21-16.89c4.25-3.9,9.96-6.01,17.15-6.01
				C806.29,463.37,812.66,465.32,817.89,469.38z"/>
			<path class="st2" d="M905.46,443.08c-6.7,0-12.9,1.14-18.46,3.25s-10.29,5.2-14.37,8.93c-4.08,3.73-7.19,8.28-9.31,13.8
				c-2.29,5.2-3.43,11.04-3.43,17.37c0,6.49,1.14,12.5,3.43,17.7c2.12,5.52,5.23,10.07,9.31,13.8c4.08,3.74,8.82,6.66,14.37,8.77
				c5.55,2.11,11.76,3.09,18.46,3.09c6.53,0,12.58-0.97,18.13-3.25c5.55-1.95,10.29-5.03,14.54-8.77c3.92-3.9,7.19-8.44,9.47-13.8
				c2.29-5.36,3.43-11.21,3.43-17.54c0-6.5-1.14-12.34-3.43-17.7c-2.12-5.36-5.23-9.9-9.31-13.64c-4.08-3.9-8.82-6.82-14.54-8.93
				C918.2,444.05,912.16,443.08,905.46,443.08z M905.46,463.54c6.86,0,12.25,2.11,16.33,6.17c3.92,4.22,5.88,9.74,5.88,16.72
				c0,6.98-1.96,12.66-5.88,16.72c-3.92,4.22-9.31,6.33-16.33,6.33c-6.86,0-12.25-2.11-16.33-6.33c-4.08-4.06-6.04-9.74-6.04-16.72
				c0-6.82,1.96-12.34,6.04-16.56C893.05,465.65,898.44,463.54,905.46,463.54z"/>
			<path class="st2" d="M988.34,445.02h-18.79v82.81h23.36V480.1c1.63-4.55,4.25-8.28,8-11.2c3.59-2.92,7.84-4.38,12.74-4.38
				c3.76,0,7.19,0.65,10.13,1.62c3.1,1.3,5.72,2.76,7.84,4.71l13.56-17.86c-3.1-2.92-7.02-5.36-11.6-7.14
				c-4.57-1.79-9.47-2.76-14.86-2.76c-7.02,0-13.07,1.3-17.81,3.9c-4.74,2.76-8.49,6.5-11.11,11.37L988.34,445.02z"/>
			<path class="st2" d="M1074.5,493.9h60.76c0.49-1.79,0.82-3.57,0.98-5.52c0.33-1.95,0.49-3.9,0.49-5.85
				c0-6.01-0.98-11.37-2.94-16.08c-1.96-4.87-4.74-9.09-8.33-12.5c-3.43-3.41-7.68-6.17-12.74-7.96c-4.9-1.95-10.29-2.92-16.17-2.92
				c-6.86,0-13.07,1.14-18.78,3.41c-5.55,2.27-10.29,5.36-14.37,9.26c-3.92,3.9-6.86,8.44-9.15,13.8c-1.96,5.36-3.1,11.04-3.1,17.05
				c0,6.5,0.98,12.34,3.1,17.7c1.96,5.36,4.9,9.91,8.66,13.64c3.76,3.74,8.49,6.66,14.21,8.77c5.72,2.11,12.09,3.09,19.44,3.09
				c7.51,0,14.38-0.81,20.58-2.6c6.21-1.79,12.09-4.54,17.81-8.6l-9.97-16.89c-7.68,5.2-16.82,7.79-27.11,7.79
				c-7.02,0-12.42-1.46-16.17-4.38C1077.76,502.18,1075.31,498.45,1074.5,493.9z M1112.88,476.85h-37.73
				c1.47-4.38,3.76-7.79,7.19-10.23c3.27-2.44,7.84-3.73,13.56-3.73c5.72,0,9.8,1.3,12.58,3.9
				C1111.25,469.38,1112.72,472.79,1112.88,476.85z"/>
			<path class="st2" d="M1217.95,469.22l9.31-17.37c-9.96-5.85-21.89-8.77-35.77-8.77c-11.92,0-21.23,2.44-27.77,7.47
				c-6.37,4.87-9.64,11.37-9.64,19.65c0,7.63,2.29,13.64,6.86,17.7c4.57,4.06,10.94,6.66,19.11,7.47l18.78,2.11
				c3.1,0.32,5.39,0.97,6.86,1.79c1.47,0.97,2.12,2.44,2.12,4.22c0,2.27-1.47,3.9-4.25,5.2c-2.78,0.97-7.35,1.62-13.56,1.62
				c-5.23,0-10.29-0.65-15.19-1.79c-4.9-1.14-9.8-3.25-14.7-6.01l-8.82,17.21c6.04,3.73,12.25,6.49,18.29,7.79
				c6.04,1.62,12.74,2.27,19.93,2.27c12.9,0,22.87-2.44,30.06-7.14c7.35-4.87,10.94-11.69,10.94-20.46c0-7.95-2.61-13.96-8-17.86
				c-5.39-3.9-12.74-6.49-22.22-7.63l-15.84-1.79c-5.06-0.65-7.51-2.6-7.51-5.68c0-4.38,4.74-6.5,14.21-6.5
				C1200.96,462.72,1209.95,464.83,1217.95,469.22z"/>
			<path class="st2" d="M1269.1,493.9h60.76c0.49-1.79,0.82-3.57,0.98-5.52c0.33-1.95,0.49-3.9,0.49-5.85
				c0-6.01-0.98-11.37-2.94-16.08c-1.96-4.87-4.74-9.09-8.33-12.5c-3.43-3.41-7.68-6.17-12.74-7.96c-4.9-1.95-10.29-2.92-16.17-2.92
				c-6.86,0-13.07,1.14-18.78,3.41c-5.55,2.27-10.29,5.36-14.38,9.26c-3.92,3.9-6.86,8.44-9.15,13.8c-1.96,5.36-3.1,11.04-3.1,17.05
				c0,6.5,0.98,12.34,3.1,17.7c1.96,5.36,4.9,9.91,8.66,13.64c3.76,3.74,8.49,6.66,14.21,8.77c5.72,2.11,12.09,3.09,19.44,3.09
				c7.51,0,14.37-0.81,20.58-2.6c6.21-1.79,12.09-4.54,17.8-8.6l-9.96-16.89c-7.68,5.2-16.82,7.79-27.12,7.79
				c-7.02,0-12.41-1.46-16.17-4.38C1272.37,502.18,1269.91,498.45,1269.1,493.9z M1307.48,476.85h-37.73
				c1.47-4.38,3.76-7.79,7.19-10.23c3.27-2.44,7.84-3.73,13.56-3.73c5.72,0,9.8,1.3,12.58,3.9
				C1305.85,469.38,1307.32,472.79,1307.48,476.85z"/>
			<path class="st2" d="M1349.17,452.82l9.15,16.89c8.66-4.06,17.64-6.17,26.95-6.17c5.23,0,9.15,0.97,11.6,2.92
				c2.45,2.11,3.76,4.87,3.76,8.44v2.6c-2.45-0.65-5.06-1.14-8.01-1.62c-2.61-0.49-5.72-0.65-9.15-0.65
				c-5.88,0-11.11,0.65-16.01,1.62c-4.57,1.3-8.82,2.92-12.09,5.2c-3.59,2.27-6.21,5.03-8,8.44c-1.8,3.41-2.78,7.31-2.78,11.69
				c0,8.93,2.94,15.91,8.49,20.46c5.88,4.87,13.56,7.14,23.19,7.14c6.37,0,12.09-0.97,16.83-3.09c4.74-2.11,8.82-5.36,11.92-9.9
				c0.82,4.71,2.94,7.95,6.04,9.9s7.02,2.92,11.6,2.92c2.12,0,4.08-0.16,5.88-0.49c1.8-0.32,3.43-0.81,4.9-1.3l-2.12-18.35
				c-0.65,0.33-1.63,0.49-2.78,0.49c-3.27,0-4.9-2.11-4.9-6.49v-25.01c0-5.36-0.65-10.07-2.29-14.45c-1.31-4.38-3.59-7.96-6.86-11.2
				c-2.94-2.92-7.02-5.36-11.76-7.14c-4.9-1.79-10.62-2.6-17.31-2.6c-6.37,0-12.58,0.81-18.62,2.27
				C1360.93,446.81,1355.06,449.41,1349.17,452.82z M1400.79,493.57v1.95c0,3.73-1.8,7.14-5.23,9.91
				c-3.43,2.92-8.49,4.38-15.19,4.38c-4.08,0-7.19-0.81-8.98-2.44c-1.96-1.46-2.94-3.57-2.94-6.33c0-2.76,1.31-5.03,3.59-6.66
				c2.61-1.79,6.53-2.6,12.09-2.6C1390.17,491.79,1395.73,492.44,1400.79,493.57z"/>
			<path class="st2" d="M1467.19,445.02h-18.78v82.81h23.36V480.1c1.63-4.55,4.25-8.28,8.01-11.2c3.59-2.92,7.84-4.38,12.74-4.38
				c3.76,0,7.19,0.65,10.13,1.62c3.1,1.3,5.72,2.76,7.84,4.71l13.56-17.86c-3.1-2.92-7.02-5.36-11.6-7.14
				c-4.58-1.79-9.47-2.76-14.86-2.76c-7.02,0-13.07,1.3-17.8,3.9c-4.74,2.76-8.49,6.5-11.11,11.37L1467.19,445.02z"/>
			<path class="st2" d="M1596.79,471.49l13.07-15.75c-4.57-4.22-9.64-7.47-15.19-9.42c-5.55-2.27-12.09-3.25-19.6-3.25
				c-6.37,0-12.41,1.14-17.8,3.25s-10.13,5.2-14.38,9.09c-3.92,3.9-7.19,8.44-9.47,13.8c-2.29,5.36-3.43,11.04-3.43,17.37
				c0,6.01,0.98,11.53,2.78,16.89c1.96,5.2,4.9,9.74,8.49,13.64c3.92,3.9,8.49,6.98,14.05,9.26c5.39,2.27,11.76,3.41,19.11,3.41
				c7.35,0,14.05-1.14,20.09-3.25c6.04-2.27,11.43-6.01,16.5-11.04l-13.56-15.42c-2.78,2.76-5.88,4.87-9.64,6.33
				c-3.76,1.62-7.84,2.44-12.42,2.44c-6.86,0-12.25-2.11-16.17-6.33c-4.08-4.22-6.04-9.74-6.04-16.56c0-3.41,0.65-6.33,1.8-9.09
				c1.14-2.76,2.78-5.03,4.9-6.82c1.96-1.95,4.25-3.41,7.02-4.55c2.78-0.97,5.56-1.46,8.66-1.46
				C1584.38,464.02,1591.4,466.46,1596.79,471.49z"/>
			<path class="st2" d="M1652.49,413.04h-23.36v114.8h23.36V480.1c1.8-5.36,4.57-9.58,8.33-12.34c3.76-2.76,8.01-4.22,12.9-4.22
				c5.06,0,8.99,1.46,11.6,4.55c2.94,3.09,4.25,7.63,4.25,13.64v46.12h23.19v-48.06c0-12.02-3.1-21.11-9.15-27.28
				c-6.21-6.33-14.86-9.42-25.81-9.42c-5.88,0-10.78,0.97-15.03,2.92c-3.92,2.11-7.51,4.87-10.29,8.44V413.04z"/>
			<path class="st3" d="M1745.98,500.88c-3.76,0-7.19,1.3-9.96,3.9c-2.78,2.44-4.25,5.85-4.25,10.07c0,4.38,1.47,7.79,4.41,10.23
				c2.78,2.44,6.04,3.73,9.8,3.73c3.76,0,7.19-1.3,9.97-3.73c2.78-2.44,4.25-5.85,4.25-10.23c0-4.22-1.47-7.63-4.25-10.07
				C1753.17,502.18,1749.74,500.88,1745.98,500.88z"/>
			<path class="st1" d="M734.87,592.44H707.1l35.12,83.14h24.67L802,592.44h-26.62l-19.44,60.24h-1.63L734.87,592.44z"/>
			<path class="st1" d="M835.13,641.31h60.76c0.49-1.79,0.82-3.57,0.98-5.52c0.33-1.95,0.49-3.9,0.49-5.85
				c0-6.01-0.98-11.37-2.94-16.07c-1.96-4.87-4.74-9.09-8.33-12.5c-3.43-3.41-7.68-6.17-12.74-7.96c-4.9-1.95-10.29-2.92-16.17-2.92
				c-6.86,0-13.07,1.14-18.79,3.41c-5.55,2.27-10.29,5.36-14.37,9.26c-3.92,3.9-6.86,8.44-9.15,13.8c-1.96,5.36-3.1,11.04-3.1,17.05
				c0,6.49,0.98,12.34,3.1,17.7c1.96,5.36,4.9,9.9,8.66,13.64c3.76,3.73,8.49,6.66,14.21,8.77c5.72,2.11,12.09,3.09,19.44,3.09
				c7.51,0,14.37-0.81,20.58-2.6c6.21-1.79,12.09-4.55,17.8-8.6l-9.96-16.89c-7.68,5.2-16.83,7.79-27.12,7.79
				c-7.02,0-12.42-1.46-16.17-4.38C838.4,649.59,835.95,645.86,835.13,641.31z M873.52,624.26h-37.73c1.47-4.39,3.76-7.8,7.19-10.23
				c3.27-2.44,7.84-3.73,13.56-3.73s9.8,1.3,12.58,3.9C871.89,616.79,873.36,620.2,873.52,624.26z"/>
			<path class="st1" d="M934.49,592.44h-18.62v82.81h23.36v-47.41c1.8-5.52,4.57-9.74,8.33-12.66c3.59-2.76,7.84-4.22,12.9-4.22
				c5.06,0,8.98,1.46,11.6,4.54c2.94,3.09,4.25,7.63,4.25,13.64v46.11h23.2v-48.06c0-12.02-3.1-21.11-9.47-27.28
				c-6.21-6.33-14.86-9.42-25.97-9.42c-6.37,0-12.09,1.3-16.82,3.9c-4.9,2.76-8.66,6.5-11.11,11.37L934.49,592.44z"/>
			<path class="st1" d="M1027.04,592.76l-12.09,0.97v19.32h12.41v31.99c0,10.88,2.61,18.83,7.84,24.19
				c5.23,5.36,12.58,7.96,22.21,7.96c5.23,0,9.96-0.65,14.21-1.79c4.25-1.14,8.33-3.09,12.42-5.68l-7.84-17.86
				c-1.96,1.3-4.08,2.27-6.53,3.08c-2.29,0.81-4.9,1.14-7.68,1.14c-3.43,0-6.21-0.97-8.33-2.76c-1.96-1.79-2.94-4.55-2.94-7.96
				v-32.31h27.6v-20.62h-27.77l0.98-20.62l-22.22-1.14L1027.04,592.76z"/>
			<path class="st1" d="M1121.7,592.44h-23.36v48.06c0,12.18,3.1,21.27,9.15,27.44c6.21,6.17,14.86,9.26,26.13,9.26
				c6.21,0,11.6-1.3,16.33-3.9c4.74-2.76,8.33-6.5,10.78-11.37l1.63,13.32H1181v-82.81h-23.36v47.58c-1.8,5.36-4.41,9.42-8,12.5
				c-3.59,2.92-7.84,4.38-12.58,4.38c-10.29,0-15.35-6.17-15.35-18.35V592.44z"/>
			<path class="st1" d="M1221.93,592.44h-18.78v82.81h23.36v-47.74c1.63-4.55,4.25-8.28,8.01-11.2c3.59-2.92,7.84-4.38,12.74-4.38
				c3.76,0,7.19,0.65,10.13,1.62c3.1,1.3,5.72,2.76,7.84,4.71l13.56-17.86c-3.1-2.92-7.02-5.36-11.6-7.14
				c-4.57-1.79-9.47-2.76-14.86-2.76c-7.02,0-13.07,1.3-17.8,3.9c-4.74,2.76-8.49,6.5-11.11,11.37L1221.93,592.44z"/>
			<path class="st1" d="M1308.09,641.31h60.76c0.49-1.79,0.82-3.57,0.98-5.52c0.33-1.95,0.49-3.9,0.49-5.85
				c0-6.01-0.98-11.37-2.94-16.07c-1.96-4.87-4.74-9.09-8.33-12.5c-3.43-3.41-7.68-6.17-12.74-7.96c-4.9-1.95-10.29-2.92-16.17-2.92
				c-6.86,0-13.07,1.14-18.78,3.41c-5.55,2.27-10.29,5.36-14.37,9.26c-3.92,3.9-6.86,8.44-9.15,13.8c-1.96,5.36-3.1,11.04-3.1,17.05
				c0,6.49,0.98,12.34,3.1,17.7c1.96,5.36,4.9,9.9,8.66,13.64c3.76,3.73,8.49,6.66,14.21,8.77c5.72,2.11,12.09,3.09,19.44,3.09
				c7.51,0,14.38-0.81,20.58-2.6c6.21-1.79,12.09-4.55,17.81-8.6l-9.96-16.89c-7.68,5.2-16.83,7.79-27.12,7.79
				c-7.02,0-12.41-1.46-16.17-4.38C1311.35,649.59,1308.9,645.86,1308.09,641.31z M1346.47,624.26h-37.73
				c1.47-4.39,3.76-7.8,7.19-10.23c3.27-2.44,7.84-3.73,13.56-3.73c5.72,0,9.8,1.3,12.58,3.9
				C1344.84,616.79,1346.31,620.2,1346.47,624.26z"/>
			<path class="st1" d="M1451.54,616.63l9.31-17.37c-9.96-5.85-21.89-8.77-35.77-8.77c-11.92,0-21.23,2.44-27.77,7.47
				c-6.37,4.87-9.64,11.37-9.64,19.65c0,7.63,2.29,13.64,6.86,17.7c4.57,4.06,10.94,6.66,19.11,7.47l18.78,2.11
				c3.1,0.32,5.39,0.97,6.86,1.79c1.47,0.97,2.12,2.44,2.12,4.22c0,2.27-1.47,3.9-4.25,5.2c-2.78,0.97-7.35,1.62-13.56,1.62
				c-5.23,0-10.29-0.65-15.19-1.79c-4.9-1.14-9.8-3.25-14.7-6.01l-8.82,17.21c6.04,3.74,12.25,6.5,18.29,7.79
				c6.04,1.62,12.74,2.27,19.93,2.27c12.9,0,22.87-2.44,30.06-7.15c7.35-4.87,10.94-11.69,10.94-20.46c0-7.96-2.61-13.97-8.01-17.86
				c-5.39-3.9-12.74-6.49-22.21-7.63l-15.84-1.79c-5.06-0.65-7.51-2.6-7.51-5.68c0-4.38,4.74-6.5,14.21-6.5
				C1434.55,610.14,1443.53,612.25,1451.54,616.63z"/>
		</g>
	</g>
	<g>
		<path class="st2" d="M545.95,790.75H275.15c-63.6,0-115.34-51.74-115.34-115.34V404.6c0-63.6,51.74-115.34,115.34-115.34h270.81
			c63.6,0,115.34,51.74,115.34,115.34V675.4C661.3,739,609.55,790.75,545.95,790.75z M275.15,319.34
			c-47.01,0-85.25,38.24-85.25,85.25V675.4c0,47.01,38.24,85.25,85.25,85.25h270.81c47.01,0,85.25-38.24,85.25-85.25V404.6
			c0-47.01-38.24-85.25-85.25-85.25H275.15z"/>
	</g>
</g>
</svg>
